<?xml version="1.0" encoding="UTF-8"?>
<svg version="1.1" xmlns="http://www.w3.org/2000/svg" width="512" height="512">
<path d="M0 0 C5.78808948 2.94738059 11.19245637 6.19575808 16.53793335 9.88037109 C17.76789536 10.71634827 17.76789536 10.71634827 19.02270508 11.56921387 C20.78829006 12.76977283 22.55210824 13.97293353 24.31430054 15.1784668 C29.10872107 18.45736574 33.91739696 21.71523456 38.72543335 24.97412109 C39.7183136 25.64761597 40.71119385 26.32111084 41.73416138 27.01501465 C51.99309578 33.9631744 62.34197217 40.77178118 72.70199585 47.56787109 C89.6999668 58.72469616 106.59278475 70.0293008 123.42074585 81.44091797 C125.10555027 82.58232895 126.79044341 83.72360899 128.47543335 84.86474609 C129.2723761 85.40526611 130.06931885 85.94578613 130.89041138 86.50268555 C136.89110821 90.5583052 142.97754389 94.45761835 149.13412476 98.27197266 C151.70199585 100.06787109 151.70199585 100.06787109 153.70199585 103.06787109 C154.60861085 110.27429802 152.44549006 114.11205974 148.38949585 119.94287109 C147.88998413 120.70083984 147.39047241 121.45880859 146.87582397 122.23974609 C144.62846279 125.58548645 143.1043787 127.79961586 139.70199585 130.06787109 C134.04993099 130.86114336 131.26548954 130.079662 126.4246521 127.03662109 C125.5365686 126.48425781 124.64848511 125.93189453 123.73348999 125.36279297 C123.06309692 124.93546875 122.39270386 124.50814453 121.70199585 124.06787109 C121.50467344 142.64541115 121.3889764 161.22180201 121.36777687 179.80039692 C121.35607275 188.42892356 121.31867383 197.05584614 121.21859741 205.68383789 C121.13133309 213.21307424 121.09450658 220.7406719 121.11572397 228.27041119 C121.12524316 232.25018517 121.11122899 236.2264323 121.03657913 240.2055912 C120.73086397 257.40425483 120.99328141 271.18166268 133.26800537 284.52738953 C133.8597565 285.1321131 134.45150763 285.73683668 135.06119061 286.35988522 C137.31241397 288.70328199 139.16990714 291.22068709 141.07699585 293.84912109 C142.28410597 295.42297669 143.49240848 296.99591859 144.70199585 298.56787109 C149.91400431 305.37465089 155.06001042 312.22418065 160.13949585 319.13037109 C160.71997681 319.91065674 161.30045776 320.69094238 161.89852905 321.49487305 C164.43302102 324.91181675 166.90466675 328.3277231 169.18637085 331.91943359 C172.59780348 337.5498202 172.59780348 337.5498202 178.0262146 340.72021484 C180.62248996 340.73636404 180.62248996 340.73636404 183.36605835 340.37255859 C200.89119507 338.77190208 220.8555991 344.0509742 235.28793335 353.81787109 C239.77461502 357.99963265 241.88968238 361.9342644 242.20320129 368.00733948 C242.22378703 369.92918053 242.2225752 371.8513347 242.20370483 373.77319336 C242.21180931 375.35497879 242.21180931 375.35497879 242.22007751 376.96871948 C242.23254504 380.440861 242.21608717 383.91217025 242.1980896 387.38427734 C242.19824462 389.80370629 242.19973412 392.22313549 242.20249939 394.64256287 C242.20388247 399.70721446 242.19133917 404.77158254 242.16854858 409.83618164 C242.14014948 416.32502037 242.14290684 422.81338869 242.15563869 429.30226231 C242.16259602 434.2959952 242.15480613 439.28961952 242.14238167 444.28333855 C242.1378688 446.67591879 242.13752893 449.0685107 242.14144707 451.461092 C242.1443601 454.80495195 242.12784742 458.14816517 242.10604858 461.49194336 C242.11280106 462.97193565 242.11280106 462.97193565 242.11968994 464.48182678 C242.05382288 470.56851941 241.32657563 474.99773931 237.2293396 479.79052734 C218.70459517 495.40228985 191.14618238 496.64021489 168.01644897 494.86132812 C152.79075056 493.35527082 134.07197408 489.83031431 123.62501526 477.64535522 C120.71174872 473.15755932 121.11963807 468.32962873 121.1368103 463.140625 C121.12498215 462.05044571 121.11315399 460.96026642 121.10096741 459.83705139 C121.06811504 456.23930649 121.06512343 452.64231855 121.0652771 449.04443359 C121.05496104 446.53868298 121.0438978 444.03293533 121.03211975 441.52719116 C121.01269051 436.27669587 121.00904079 431.02639432 121.01571655 425.77587891 C121.02295469 419.72129944 120.98955095 413.66788518 120.93665916 407.61355841 C120.88748456 401.77222244 120.87738876 395.93134332 120.88210106 390.08982468 C120.87923128 387.61233074 120.86517347 385.13482312 120.8396244 382.65745926 C120.80760937 379.18866229 120.82022099 375.72271107 120.84384155 372.25390625 C120.8249588 371.23546127 120.80607605 370.2170163 120.78662109 369.16770935 C120.89253315 362.61407658 122.33643354 359.28053275 126.9632597 354.60771751 C128.92742724 352.86822625 130.84860705 351.35398411 133.13949585 350.06787109 C133.81883179 349.67599609 134.49816772 349.28412109 135.1980896 348.88037109 C135.94252319 348.47818359 135.94252319 348.47818359 136.70199585 348.06787109 C136.35120972 347.62209717 136.00042358 347.17632324 135.63900757 346.71704102 C127.60472092 336.49004736 119.73616141 326.15937518 112.05355835 315.66552734 C111.52784241 314.97895554 111.00212646 314.29238373 110.46047974 313.58500671 C108.70199585 311.06787109 108.70199585 311.06787109 107.33660889 308.25808716 C105.21293243 304.36075921 103.18344534 300.8676437 98.7491951 299.43848228 C92.69905901 298.40987444 86.56491428 298.65929026 80.45199585 298.77490234 C78.46801737 298.77297902 76.4840382 298.76620789 74.50009155 298.75480652 C69.29759534 298.737856 64.09772725 298.78645473 58.8956604 298.84899902 C52.64400035 298.91041046 46.39213042 298.88990818 40.14024353 298.88323212 C30.65919601 298.88223151 21.18435415 298.98486185 11.70199585 299.06787109 C11.70199585 313.25787109 11.70199585 327.44787109 11.70199585 342.06787109 C15.33199585 342.39787109 18.96199585 342.72787109 22.70199585 343.06787109 C34.18854299 345.88067434 45.68373255 350.10646512 52.70199585 360.06787109 C53.88159832 362.42707604 53.83526554 363.85064999 53.84916687 366.48199463 C53.85989983 367.87406883 53.85989983 367.87406883 53.87084961 369.29426575 C53.87353851 370.3155809 53.87622742 371.33689606 53.8789978 372.38916016 C53.885569 373.46246078 53.8921402 374.53576141 53.89891052 375.6415863 C53.91867602 379.20555688 53.93031348 382.76948526 53.9402771 386.33349609 C53.94435263 387.54878746 53.94842815 388.76407883 53.95262718 390.0161972 C53.97350194 396.44862194 53.9877975 402.88102526 53.99716187 409.31347656 C54.00822828 415.96276595 54.04262724 422.61171266 54.08233356 429.26089859 C54.10846102 434.36869943 54.1168503 439.47642013 54.12044334 444.58428192 C54.12531941 447.0355022 54.13696221 449.48671867 54.15548134 451.93787384 C54.17978917 455.36852109 54.17892254 458.79829717 54.17196655 462.22900391 C54.19118164 463.74883125 54.19118164 463.74883125 54.21078491 465.29936218 C54.15856908 472.36288849 52.82406622 475.48236841 48.20199585 480.79052734 C31.63757186 495.58635398 3.61607476 496.06821877 -17.29800415 495.06787109 C-33.24417894 493.74223596 -52.35470042 490.5232322 -63.29800415 477.81787109 C-65.80260359 474.37404686 -66.4231601 472.82091965 -66.44517517 468.65374756 C-66.45590813 467.26167336 -66.45590813 467.26167336 -66.46685791 465.84147644 C-66.46954681 464.82016129 -66.47223572 463.79884613 -66.4750061 462.74658203 C-66.4815773 461.6732814 -66.4881485 460.59998077 -66.49491882 459.49415588 C-66.51468432 455.9301853 -66.52632178 452.36625693 -66.5362854 448.80224609 C-66.54036093 447.58695473 -66.54443645 446.37166336 -66.54863548 445.11954498 C-66.56951024 438.68712025 -66.5838058 432.25471693 -66.59317017 425.82226562 C-66.60423658 419.17297624 -66.63863554 412.52402953 -66.67834187 405.8748436 C-66.70446932 400.76704276 -66.7128586 395.65932206 -66.71645164 390.55146027 C-66.72132771 388.10023999 -66.73297051 385.64902352 -66.75148964 383.19786835 C-66.77579747 379.7672211 -66.77493084 376.33744501 -66.76797485 372.90673828 C-66.78718994 371.38691093 -66.78718994 371.38691093 -66.80679321 369.83638 C-66.75506456 362.83875745 -65.58099084 359.35831912 -60.57925415 354.34521484 C-50.26098874 346.58388801 -37.18110242 342.06787109 -24.29800415 342.06787109 C-24.29800415 327.87787109 -24.29800415 313.68787109 -24.29800415 299.06787109 C-39.77492465 298.69270279 -39.77492465 298.69270279 -55.25112915 298.49560547 C-61.57552161 298.45444408 -67.8949475 298.39348793 -74.21694946 298.20727539 C-97.88820352 296.14513602 -97.88820352 296.14513602 -118.95913696 304.01977539 C-122.21287791 307.9002937 -124.37355021 312.07374226 -126.28549194 316.74356079 C-127.72770026 320.05427608 -129.66302722 322.44913939 -131.95425415 325.23583984 C-132.60394165 326.08597656 -133.25362915 326.93611328 -133.92300415 327.81201172 C-134.54175415 328.61832031 -135.16050415 329.42462891 -135.79800415 330.25537109 C-137.1003718 331.95697644 -138.40245963 333.65879599 -139.70425415 335.36083984 C-140.30624634 336.14765137 -140.90823853 336.93446289 -141.5284729 337.74511719 C-144.13840819 341.17101735 -146.72171411 344.61662594 -149.29800415 348.06787109 C-148.6225354 348.51517578 -147.94706665 348.96248047 -147.25112915 349.42333984 C-137.22150142 356.22087656 -137.22150142 356.22087656 -134.29800415 362.06787109 C-134.19750295 363.54930573 -134.15860653 365.0351391 -134.15083313 366.5199585 C-134.14367783 367.45642212 -134.13652252 368.39288574 -134.12915039 369.35772705 C-134.12646149 370.38839294 -134.12377258 371.41905884 -134.1210022 372.48095703 C-134.114431 373.56401123 -134.1078598 374.64706543 -134.10108948 375.76293945 C-134.0813236 379.35937564 -134.06968646 382.95577001 -134.0597229 386.55224609 C-134.05564737 387.77857002 -134.05157185 389.00489395 -134.04737282 390.26837921 C-134.02865208 396.08935212 -134.01408975 401.91030853 -134.00576085 407.73130584 C-133.99696467 413.77883246 -133.97767806 419.82610808 -133.9413147 425.87353516 C-133.90293135 432.35976243 -133.88407846 438.84576315 -133.87955666 445.33209991 C-133.8746804 447.80564868 -133.86303704 450.27919366 -133.84451866 452.75267792 C-133.82021261 456.21445578 -133.82107715 459.67537024 -133.82803345 463.13720703 C-133.81522339 464.159776 -133.80241333 465.18234497 -133.78921509 466.23590088 C-133.8327427 472.17686762 -134.36326601 475.53119783 -138.29800415 480.06787109 C-156.12370745 495.08376015 -183.08529872 496.49834185 -205.29800415 495.06787109 C-215.96392475 494.08002872 -226.34815544 492.13473593 -236.29800415 488.06787109 C-237.03148071 487.77138672 -237.76495728 487.47490234 -238.5206604 487.16943359 C-244.23029099 484.59514928 -250.29567808 480.68867044 -253.3838501 475.1043396 C-254.73596118 470.61314614 -254.59280254 466.27179894 -254.58853149 461.60546875 C-254.59524872 460.55284348 -254.60196594 459.5002182 -254.60888672 458.41569519 C-254.62787671 454.93772658 -254.63179138 451.45995082 -254.63394165 447.98193359 C-254.64036862 445.56204143 -254.6470969 443.14215005 -254.65411377 440.72225952 C-254.66608886 435.64994505 -254.66979432 430.5776987 -254.66860962 425.50537109 C-254.66840636 419.00981233 -254.69571497 412.51469075 -254.73015404 406.01923561 C-254.75240418 401.02118935 -254.75644774 396.02324864 -254.75539017 391.02515793 C-254.75774871 388.63059354 -254.76658642 386.23602636 -254.7820549 383.84151077 C-254.80167685 380.49038416 -254.79589105 377.14020476 -254.78384399 373.7890625 C-254.79508301 372.80285416 -254.80632202 371.81664581 -254.81790161 370.80055237 C-254.76206359 364.67998807 -253.86080308 361.08523927 -250.29800415 356.06787109 C-237.64611031 343.70028948 -216.24398938 340.62822864 -199.29800415 340.06787109 C-198.45068726 340.16994873 -197.60337036 340.27202637 -196.7303772 340.37719727 C-191.06040158 340.89512371 -191.06040158 340.89512371 -186.14053345 338.40649414 C-184.05792527 335.95613376 -182.2654622 333.43367788 -180.48550415 330.75537109 C-179.80810181 329.80275391 -179.13069946 328.85013672 -178.43276978 327.86865234 C-177.03554541 325.90131869 -175.65255395 323.92380063 -174.28384399 321.93652344 C-171.38149557 317.74392522 -168.33843706 313.66072801 -165.29800415 309.56787109 C-164.16107449 308.01724447 -163.02435831 306.46646128 -161.8878479 304.91552734 C-157.30546107 298.69593325 -152.60376788 292.56699199 -147.88980103 286.44677734 C-147.26267212 285.62951172 -146.63554321 284.81224609 -145.9894104 283.97021484 C-145.44486206 283.26372803 -144.90031372 282.55724121 -144.33926392 281.8293457 C-143.66564819 280.91805908 -142.99203247 280.00677246 -142.29800415 279.06787109 C-141.73719336 278.42459712 -141.17638256 277.78132315 -140.5985775 277.11855602 C-134.70549513 269.81677369 -134.30160942 263.79520325 -134.41152954 254.62207031 C-134.40362609 253.19202245 -134.39265491 251.76198879 -134.37887573 250.33198547 C-134.35032769 246.47898579 -134.36429581 242.62721116 -134.38631749 238.77421331 C-134.40202333 234.7369257 -134.37804913 230.69987071 -134.3584137 226.66262817 C-134.32725768 219.03067931 -134.33141538 211.39918119 -134.34848827 203.7672044 C-134.36620103 195.0729714 -134.34419951 186.37897782 -134.31898129 177.68477988 C-134.26802451 159.81238764 -134.26655329 141.94029886 -134.29800415 124.06787109 C-134.96984741 124.49302002 -135.64169067 124.91816895 -136.33389282 125.35620117 C-137.22310425 125.90687256 -138.11231567 126.45754395 -139.0284729 127.02490234 C-139.90656616 127.57380127 -140.78465942 128.1227002 -141.68936157 128.68823242 C-145.68894877 130.80350311 -147.84721512 130.89767922 -152.29800415 130.06787109 C-156.28673791 126.59215776 -159.22874926 122.64273503 -162.11050415 118.25537109 C-162.51720337 117.67722656 -162.92390259 117.09908203 -163.34292603 116.50341797 C-166.39443466 111.86204769 -167.12180515 108.61031459 -166.29800415 103.06787109 C-162.19230025 98.0930804 -156.80051018 94.89197472 -151.43081665 91.41162109 C-150.00139236 90.4744928 -150.00139236 90.4744928 -148.54309082 89.51843262 C-145.50672493 87.52924474 -142.4651175 85.54825557 -139.42300415 83.56787109 C-136.3890874 81.58591785 -133.35629343 79.6022661 -130.32434082 77.61730957 C-128.44137327 76.38531278 -126.5571011 75.15530689 -124.67132568 73.9276123 C-122.97105712 72.81786199 -121.27817578 71.69667916 -119.5942688 70.56225586 C-117.29800415 69.06787109 -117.29800415 69.06787109 -115.14138794 67.9387207 C-113.11038667 66.7964192 -111.75405129 65.89176135 -110.29800415 64.06787109 C-109.32260899 60.31129694 -109.4142727 56.67947173 -109.50112915 52.81787109 C-109.49336456 51.18156738 -109.49336456 51.18156738 -109.48544312 49.51220703 C-109.47354877 46.02984056 -109.50808474 42.54999789 -109.54800415 39.06787109 C-109.56675869 35.5862586 -109.57550118 32.10519101 -109.56771851 28.62353516 C-109.56504054 26.45877562 -109.57878067 24.29391877 -109.61080933 22.12939453 C-109.63697572 12.92786008 -109.63697572 12.92786008 -106.29800415 9.06787109 C-104.05325852 7.94549828 -102.78610016 7.91909388 -100.29483032 7.875 C-99.05795723 7.85090561 -99.05795723 7.85090561 -97.7960968 7.82632446 C-94.02322216 7.78184582 -90.25052306 7.74080847 -86.47744751 7.71777344 C-84.48807068 7.70121559 -82.4987533 7.67392781 -80.50967407 7.63574219 C-77.6406266 7.58094846 -74.77297328 7.55909593 -71.9034729 7.54443359 C-71.01685471 7.52176422 -70.13023651 7.49909485 -69.2167511 7.47573853 C-64.96221826 7.49027691 -62.85815498 7.69234447 -59.2484436 10.11230469 C-56.87106579 13.71482513 -56.52162844 16.68593966 -56.48550415 20.88037109 C-56.46036743 21.57324219 -56.43523071 22.26611328 -56.40933228 22.97998047 C-56.35087152 24.67534231 -56.32147368 26.37166397 -56.29800415 28.06787109 C-55.54418205 27.56714584 -55.54418205 27.56714584 -54.77513123 27.05630493 C-49.53889119 23.57942647 -44.29846423 20.10892947 -39.05557251 16.64208984 C-37.10006588 15.34782101 -35.1456287 14.05193484 -33.19229126 12.75439453 C-30.3826787 10.88846318 -27.56925786 9.02840265 -24.7550354 7.16943359 C-23.88401688 6.58916412 -23.01299835 6.00889465 -22.11558533 5.41104126 C-21.29511215 4.87063202 -20.47463898 4.33022278 -19.62930298 3.7734375 C-18.91204544 3.29822662 -18.1947879 2.82301575 -17.45579529 2.33340454 C-11.84318832 -0.95836069 -6.20844718 -2.51830401 0 0 Z " fill="#C0CDE7" transform="translate(262.2980041503906,8.93212890625)"/>
<path d="M0 0 C2.86281851 2.7963958 5.85060093 5.81517144 6.13422108 9.96286392 C6.13849456 10.77177959 6.14276804 11.58069527 6.14717102 12.41412354 C6.15432632 13.342173 6.16148163 14.27022247 6.16885376 15.22639465 C6.17154266 16.24770981 6.17423157 17.26902496 6.17700195 18.32128906 C6.18357315 19.39458969 6.19014435 20.46789032 6.19691467 21.57371521 C6.21668017 25.13768579 6.22831763 28.70161417 6.23828125 32.265625 C6.24235678 33.48091637 6.2464323 34.69620773 6.25063133 35.94832611 C6.27150609 42.38075085 6.28580165 48.81315416 6.29516602 55.24560547 C6.30623243 61.89489486 6.34063139 68.54384156 6.38033772 75.1930275 C6.40646517 80.30082833 6.41485445 85.40854904 6.41844749 90.51641083 C6.42332356 92.96763111 6.43496636 95.41884757 6.45348549 97.87000275 C6.47779332 101.30065 6.47692669 104.73042608 6.4699707 108.16113281 C6.48278076 109.17435104 6.49559082 110.18756927 6.50878906 111.23149109 C6.45657323 118.2950174 5.12207037 121.41449731 0.5 126.72265625 C-16.06442399 141.51848289 -44.08592109 142.00034768 -65 141 C-80.94617479 139.67436486 -100.05669627 136.45536111 -111 123.75 C-113.50459944 120.30617577 -114.12515595 118.75304855 -114.14717102 114.58587646 C-114.15432632 113.657827 -114.16148163 112.72977753 -114.16885376 111.77360535 C-114.17154266 110.75229019 -114.17423157 109.73097504 -114.17700195 108.67871094 C-114.18357315 107.60541031 -114.19014435 106.53210968 -114.19691467 105.42628479 C-114.21668017 101.86231421 -114.22831763 98.29838583 -114.23828125 94.734375 C-114.24235678 93.51908363 -114.2464323 92.30379227 -114.25063133 91.05167389 C-114.27150609 84.61924915 -114.28580165 78.18684584 -114.29516602 71.75439453 C-114.30623243 65.10510514 -114.34063139 58.45615844 -114.38033772 51.8069725 C-114.40646517 46.69917167 -114.41485445 41.59145096 -114.41844749 36.48358917 C-114.42332356 34.03236889 -114.43496636 31.58115243 -114.45348549 29.12999725 C-114.47779332 25.69935 -114.47692669 22.26957392 -114.4699707 18.83886719 C-114.48278076 17.82564896 -114.49559082 16.81243073 -114.50878906 15.76850891 C-114.45706041 8.77088636 -113.28298669 5.29044803 -108.28125 0.27734375 C-81.86103242 -19.59575851 -26.50802775 -20.2768536 0 0 Z " fill="#283D71" transform="translate(310,363)"/>
<path d="M0 0 C4.48668167 4.18176156 6.60174903 8.1163933 6.91526794 14.18946838 C6.93585368 16.11130944 6.93464185 18.0334636 6.91577148 19.95532227 C6.92387596 21.5371077 6.92387596 21.5371077 6.93214417 23.15084839 C6.94461169 26.62298991 6.92815382 30.09429915 6.91015625 33.56640625 C6.91031127 35.9858352 6.91180077 38.4052644 6.91456604 40.82469177 C6.91594912 45.88934336 6.90340582 50.95371145 6.88061523 56.01831055 C6.85221613 62.50714928 6.85497349 68.99551759 6.86770535 75.48439121 C6.87466267 80.4781241 6.86687278 85.47174842 6.85444832 90.46546745 C6.84993545 92.8580477 6.84959558 95.25063961 6.85351372 97.6432209 C6.85642675 100.98708085 6.83991407 104.33029407 6.81811523 107.67407227 C6.82261688 108.6607338 6.82711853 109.64739532 6.83175659 110.66395569 C6.76588953 116.75064832 6.03864228 121.17986822 1.94140625 125.97265625 C-16.58333818 141.58441875 -44.14175097 142.8223438 -67.27148438 141.04345703 C-82.49718279 139.53739973 -101.21595927 136.01244322 -111.66291809 123.82748413 C-114.57618463 119.33968823 -114.16829528 114.51175764 -114.15112305 109.32275391 C-114.1629512 108.23257462 -114.17477936 107.14239532 -114.18696594 106.0191803 C-114.21981831 102.4214354 -114.22280992 98.82444745 -114.22265625 95.2265625 C-114.23297231 92.72081188 -114.24403555 90.21506424 -114.2558136 87.70932007 C-114.27524284 82.45882478 -114.27889256 77.20852323 -114.2722168 71.95800781 C-114.26497866 65.90342835 -114.2983824 59.85001408 -114.35127419 53.79568732 C-114.40044879 47.95435135 -114.41054459 42.11347223 -114.40583229 36.27195358 C-114.40870207 33.79445965 -114.42275988 31.31695202 -114.44830894 28.83958817 C-114.48032398 25.3707912 -114.46771236 21.90483997 -114.4440918 18.43603516 C-114.46297455 17.41759018 -114.4818573 16.3991452 -114.50131226 15.34983826 C-114.39534713 8.79292106 -112.94618554 5.45605079 -108.3227663 0.77611351 C-101.49115937 -5.2266702 -92.15783653 -7.33552905 -83.5859375 -9.75 C-82.4825 -10.09417969 -81.3790625 -10.43835938 -80.2421875 -10.79296875 C-76.08513652 -11.88108573 -72.03968129 -12.43613991 -67.7734375 -12.875 C-66.97156006 -12.9584668 -66.16968262 -13.04193359 -65.34350586 -13.12792969 C-43.19022598 -15.3308941 -18.8027634 -12.72452871 0 0 Z " fill="#283D71" transform="translate(497.5859375,362.75)"/>
<path d="M0 0 C12.92137909 -0.35340524 25.31425276 1.71566586 37.66015625 5.375 C39.08654419 5.78794312 39.08654419 5.78794312 40.54174805 6.20922852 C48.8976751 8.82224533 56.61813827 12.65572303 61.59765625 20.125 C62.78184088 22.49336927 62.73099329 23.93461883 62.74482727 26.5770874 C62.75198257 27.51355103 62.75913788 28.45001465 62.76651001 29.41485596 C62.76919891 30.44552185 62.77188782 31.47618774 62.7746582 32.53808594 C62.7812294 33.62114014 62.7878006 34.70419434 62.79457092 35.82006836 C62.8143368 39.41650455 62.82597394 43.01289892 62.8359375 46.609375 C62.84001303 47.83569893 62.84408855 49.06202286 62.84828758 50.32550812 C62.86700832 56.14648103 62.88157065 61.96743744 62.88989955 67.78843474 C62.89869573 73.83596137 62.91798234 79.88323698 62.9543457 85.93066406 C62.99272905 92.41689134 63.01158194 98.90289206 63.01610374 105.38922882 C63.02098001 107.86277759 63.03262336 110.33632257 63.05114174 112.80980682 C63.0754478 116.27158469 63.07458325 119.73249915 63.06762695 123.19433594 C63.08043701 124.21690491 63.09324707 125.23947388 63.10644531 126.29302979 C63.0629177 132.23399653 62.53239439 135.58832674 58.59765625 140.125 C40.77195295 155.14088905 13.81036168 156.55547075 -8.40234375 155.125 C-19.06826435 154.13715762 -29.45249504 152.19186484 -39.40234375 148.125 C-40.50255859 147.68027344 -40.50255859 147.68027344 -41.625 147.2265625 C-47.33463059 144.65227819 -53.40001768 140.74579935 -56.4881897 135.16146851 C-57.84030077 130.67027505 -57.69714214 126.32892785 -57.69287109 121.66259766 C-57.69958832 120.60997238 -57.70630554 119.55734711 -57.71322632 118.4728241 C-57.73221631 114.99485548 -57.73613098 111.51707972 -57.73828125 108.0390625 C-57.74470822 105.61917034 -57.7514365 103.19927895 -57.75845337 100.77938843 C-57.77042846 95.70707396 -57.77413392 90.63482761 -57.77294922 85.5625 C-57.77274596 79.06694124 -57.80005457 72.57181966 -57.83449364 66.07636452 C-57.85674377 61.07831826 -57.86078734 56.08037755 -57.85972977 51.08228683 C-57.86208831 48.68772245 -57.87092602 46.29315526 -57.8863945 43.89863968 C-57.90601645 40.54751306 -57.90023065 37.19733367 -57.88818359 33.84619141 C-57.89942261 32.85998306 -57.91066162 31.87377472 -57.92224121 30.85768127 C-57.86640319 24.73711697 -56.96514268 21.14236817 -53.40234375 16.125 C-39.92119077 2.94679428 -17.84518636 0.92853002 0 0 Z " fill="#283D71" transform="translate(65.40234375,348.875)"/>
<path d="M0 0 C4.09769347 3.8445179 6.33511894 7.34316086 6.57518005 13.02926636 C6.59602157 14.93460656 6.6002973 16.84017135 6.59155273 18.74560547 C6.59841599 19.78847717 6.60527924 20.83134888 6.61235046 21.90582275 C6.63064358 25.35141639 6.62677687 28.79655574 6.62109375 32.2421875 C6.62565467 34.63966012 6.63095998 37.03713143 6.63697815 39.43460083 C6.64591447 44.45987254 6.64348047 49.48498538 6.63354492 54.51025391 C6.62206102 60.94530536 6.64225586 67.37980761 6.67146206 73.81478691 C6.6898231 78.76652502 6.68953162 83.71813156 6.68382454 88.66989517 C6.68367128 91.04212336 6.68971932 93.41436044 6.70211601 95.78655624 C6.71701986 99.10658785 6.70635187 102.42560525 6.68920898 105.74560547 C6.69887695 106.72246307 6.70854492 107.69932068 6.71850586 108.70578003 C6.64381881 115.62547989 5.37336995 120.19582305 0.328125 125.23046875 C-21.58885977 140.67198075 -50.71340031 142.45458872 -76.5847168 138.19458008 C-89.79511141 135.68125319 -103.76735709 131.95354039 -111.90124512 120.41090393 C-114.53891103 115.66587358 -114.3742397 111.0808026 -114.33007812 105.76147461 C-114.3370874 104.71670456 -114.34409668 103.67193451 -114.35131836 102.59550476 C-114.36886604 99.15584422 -114.35728728 95.71701208 -114.34375 92.27734375 C-114.34644562 89.88033389 -114.35032862 87.48332509 -114.35534668 85.08631897 C-114.36123721 80.06875167 -114.35269195 75.05146964 -114.33398438 70.03393555 C-114.31118325 63.60554548 -114.32432878 57.17782301 -114.34827423 50.74945736 C-114.36273343 45.80203731 -114.35812576 40.85477537 -114.34776306 35.90735054 C-114.34509678 33.53709395 -114.34836204 31.16682295 -114.35768127 28.79658318 C-114.36784974 25.48371255 -114.35234071 22.17192118 -114.33007812 18.85913086 C-114.33817505 17.88182007 -114.34627197 16.90450928 -114.35461426 15.89758301 C-114.26879116 8.997368 -112.90260277 5.76488886 -108.2421875 0.65234375 C-83.39882519 -20.7578906 -25.657518 -21.4046325 0 0 Z " fill="#2A3E72" transform="translate(309.8125,133.625)"/>
<path d="M0 0 C5.78808948 2.94738059 11.19245637 6.19575808 16.53793335 9.88037109 C17.35790802 10.43768921 18.17788269 10.99500732 19.02270508 11.56921387 C20.78829006 12.76977283 22.55210824 13.97293353 24.31430054 15.1784668 C29.10872107 18.45736574 33.91739696 21.71523456 38.72543335 24.97412109 C39.7183136 25.64761597 40.71119385 26.32111084 41.73416138 27.01501465 C51.99309578 33.9631744 62.34197217 40.77178118 72.70199585 47.56787109 C89.6999668 58.72469616 106.59278475 70.0293008 123.42074585 81.44091797 C125.10555027 82.58232895 126.79044341 83.72360899 128.47543335 84.86474609 C129.2723761 85.40526611 130.06931885 85.94578613 130.89041138 86.50268555 C136.89110821 90.5583052 142.97754389 94.45761835 149.13412476 98.27197266 C151.70199585 100.06787109 151.70199585 100.06787109 153.70199585 103.06787109 C154.60861085 110.27429802 152.44549006 114.11205974 148.38949585 119.94287109 C147.88998413 120.70083984 147.39047241 121.45880859 146.87582397 122.23974609 C144.62846279 125.58548645 143.1043787 127.79961586 139.70199585 130.06787109 C132.26413836 131.11178092 127.62387136 128.45892164 121.70199585 124.06787109 C120.90402588 123.20198364 120.90402588 123.20198364 120.0899353 122.31860352 C116.75979114 119.1798039 113.03135075 116.83601386 109.1980896 114.35302734 C108.34433243 113.79406769 107.49057526 113.23510803 106.61094666 112.65921021 C104.76048419 111.44798142 102.90870161 110.23876759 101.05575562 109.03134155 C96.05409817 105.77099994 91.06351884 102.49380163 86.0730896 99.21630859 C85.0440451 98.54075424 84.01500061 97.86519989 82.95477295 97.16917419 C73.37774128 90.87288772 63.8657292 84.48276523 54.37249756 78.06103516 C51.70898258 76.26009518 49.04332181 74.46237493 46.37704468 72.66552734 C38.48992995 67.34756181 30.61346624 62.01598345 22.77603149 56.62498474 C19.42639625 54.32480139 16.0673294 52.0386608 12.70639038 49.7550354 C11.13342273 48.68100402 9.56495545 47.60034864 8.00131226 46.51278687 C5.86298357 45.02608541 3.71062426 43.56235264 1.55355835 42.10302734 C0.92857452 41.65990204 0.3035907 41.21677673 -0.34033203 40.76022339 C-3.74363958 38.48566418 -3.74363958 38.48566418 -7.70449829 38.47070312 C-11.41648548 40.75666944 -15.0511638 43.12041602 -18.6456604 45.58740234 C-19.47302704 46.14919189 -20.30039368 46.71098145 -21.15283203 47.28979492 C-22.94819656 48.50912944 -24.74221306 49.73045064 -26.53503418 50.95352173 C-31.38846941 54.26335644 -36.25325562 57.55640795 -41.11831665 60.84912109 C-42.12521042 61.53085892 -43.13210419 62.21259674 -44.16950989 62.91499329 C-54.63460576 69.99013233 -65.1782802 76.94376851 -75.73550415 83.88037109 C-77.56118593 85.08109648 -79.38678844 86.2819424 -81.21231079 87.48291016 C-82.11019821 88.07360291 -83.00808563 88.66429565 -83.93318176 89.27288818 C-85.2719915 90.15367035 -85.2719915 90.15367035 -86.6378479 91.05224609 C-87.52245193 91.63411682 -88.40705597 92.21598755 -89.31846619 92.81549072 C-98.02801107 98.54553446 -106.73134062 104.28481337 -115.41693115 110.05111694 C-116.98714491 111.09256615 -118.55847182 112.13233924 -120.13098145 113.1703186 C-122.28336429 114.59140228 -124.43178076 116.01828941 -126.57925415 117.44677734 C-127.20622696 117.85893494 -127.83319977 118.27109253 -128.47917175 118.69573975 C-131.77528727 120.89862307 -134.55320348 123.21747226 -137.29800415 126.06787109 C-142.55707418 129.70876573 -145.89248286 130.99770483 -152.29800415 130.06787109 C-156.29834791 126.61157409 -159.23115352 122.63907463 -162.11050415 118.25537109 C-162.51720337 117.67722656 -162.92390259 117.09908203 -163.34292603 116.50341797 C-166.39443466 111.86204769 -167.12180515 108.61031459 -166.29800415 103.06787109 C-162.19230025 98.0930804 -156.80051018 94.89197472 -151.43081665 91.41162109 C-150.00139236 90.4744928 -150.00139236 90.4744928 -148.54309082 89.51843262 C-145.50672493 87.52924474 -142.4651175 85.54825557 -139.42300415 83.56787109 C-136.3890874 81.58591785 -133.35629343 79.6022661 -130.32434082 77.61730957 C-128.44137327 76.38531278 -126.5571011 75.15530689 -124.67132568 73.9276123 C-122.97105712 72.81786199 -121.27817578 71.69667916 -119.5942688 70.56225586 C-117.29800415 69.06787109 -117.29800415 69.06787109 -115.14138794 67.9387207 C-113.11038667 66.7964192 -111.75405129 65.89176135 -110.29800415 64.06787109 C-109.32260899 60.31129694 -109.4142727 56.67947173 -109.50112915 52.81787109 C-109.49595276 51.72700195 -109.49077637 50.63613281 -109.48544312 49.51220703 C-109.47354877 46.02984056 -109.50808474 42.54999789 -109.54800415 39.06787109 C-109.56675869 35.5862586 -109.57550118 32.10519101 -109.56771851 28.62353516 C-109.56504054 26.45877562 -109.57878067 24.29391877 -109.61080933 22.12939453 C-109.63697572 12.92786008 -109.63697572 12.92786008 -106.29800415 9.06787109 C-104.05325852 7.94549828 -102.78610016 7.91909388 -100.29483032 7.875 C-99.05795723 7.85090561 -99.05795723 7.85090561 -97.7960968 7.82632446 C-94.02322216 7.78184582 -90.25052306 7.74080847 -86.47744751 7.71777344 C-84.48807068 7.70121559 -82.4987533 7.67392781 -80.50967407 7.63574219 C-77.6406266 7.58094846 -74.77297328 7.55909593 -71.9034729 7.54443359 C-71.01685471 7.52176422 -70.13023651 7.49909485 -69.2167511 7.47573853 C-64.96221826 7.49027691 -62.85815498 7.69234447 -59.2484436 10.11230469 C-56.87106579 13.71482513 -56.52162844 16.68593966 -56.48550415 20.88037109 C-56.46036743 21.57324219 -56.43523071 22.26611328 -56.40933228 22.97998047 C-56.35087152 24.67534231 -56.32147368 26.37166397 -56.29800415 28.06787109 C-55.54418205 27.56714584 -55.54418205 27.56714584 -54.77513123 27.05630493 C-49.53889119 23.57942647 -44.29846423 20.10892947 -39.05557251 16.64208984 C-37.10006588 15.34782101 -35.1456287 14.05193484 -33.19229126 12.75439453 C-30.3826787 10.88846318 -27.56925786 9.02840265 -24.7550354 7.16943359 C-23.88401688 6.58916412 -23.01299835 6.00889465 -22.11558533 5.41104126 C-21.29511215 4.87063202 -20.47463898 4.33022278 -19.62930298 3.7734375 C-18.91204544 3.29822662 -18.1947879 2.82301575 -17.45579529 2.33340454 C-11.84318832 -0.95836069 -6.20844718 -2.51830401 0 0 Z " fill="#23A8FD" transform="translate(262.2980041503906,8.93212890625)"/>
<path d="M0 0 C0.6305127 0.79220947 1.26102539 1.58441895 1.91064453 2.40063477 C10.86666551 13.5428123 25.47929671 18.60141064 39.38916016 20.29003906 C46.26827572 20.98793822 53.08950765 21.15164714 60 21.125 C61.00289063 21.12886719 62.00578125 21.13273437 63.0390625 21.13671875 C72.94638273 21.12391859 82.44478469 20.54956011 92 17.8125 C92.77182617 17.59255371 93.54365234 17.37260742 94.33886719 17.14599609 C104.18785528 14.20449212 111.81520747 10.36132231 118 2 C118.66 1.34 119.32 0.68 120 0 C120.10155026 7.29561453 120.17152891 14.59104629 120.21972656 21.88720703 C120.23982241 24.36839611 120.26710384 26.84953795 120.30175781 29.33056641 C120.35036294 32.90018382 120.37298972 36.46917416 120.390625 40.0390625 C120.41127014 41.14553131 120.43191528 42.25200012 120.45318604 43.39199829 C120.4549904 49.60690723 120.15163281 53.26500302 116 58 C115.505 58.56847656 115.01 59.13695312 114.5 59.72265625 C97.93557601 74.51848289 69.91407891 75.00034768 49 74 C33.05382521 72.67436486 13.94330373 69.45536111 3 56.75 C0.3341319 53.08443136 -0.12430001 51.46020401 -0.11352539 46.99951172 C-0.11344986 45.95858368 -0.11337433 44.91765564 -0.11329651 43.84518433 C-0.10813522 42.71807037 -0.10297394 41.59095642 -0.09765625 40.4296875 C-0.0962413 39.27832306 -0.09482635 38.12695862 -0.09336853 36.94070435 C-0.08775716 33.25211014 -0.0752027 29.56357595 -0.0625 25.875 C-0.05748647 23.37890712 -0.05292331 20.8828133 -0.04882812 18.38671875 C-0.03778403 12.25779191 -0.0210348 6.12890024 0 0 Z " fill="#1F3256" transform="translate(196,430)"/>
<path d="M0 0 C1.58585663 2.09386084 3.11822901 4.1797081 4.5625 6.375 C11.09417585 13.40911245 19.983349 16.40410743 29 19 C29.71027344 19.21527344 30.42054687 19.43054688 31.15234375 19.65234375 C54.82859916 26.28556868 85.03263602 24.0369147 107 13 C111.82153084 10.28240989 114.64121647 7.29177896 118 3 C118.66 2.34 119.32 1.68 120 1 C120.10153917 8.43803225 120.17152433 15.8758853 120.21972656 23.31445312 C120.23982405 25.84414347 120.26710668 28.37378746 120.30175781 30.90332031 C120.35035556 34.54243417 120.37298812 38.180933 120.390625 41.8203125 C120.41127014 42.94865509 120.43191528 44.07699768 120.45318604 45.23953247 C120.45496468 51.48371118 120.24020389 55.27873174 116 60 C98.1742967 75.01588905 71.21270543 76.43047075 49 75 C38.3340794 74.01215762 27.94984871 72.06686484 18 68 C17.26652344 67.70351563 16.53304688 67.40703125 15.77734375 67.1015625 C10.02841775 64.50956118 3.69060885 60.54253352 0.91018677 54.71638489 C-0.05165208 51.84584821 -0.24173528 49.67660038 -0.22705078 46.65893555 C-0.22689972 45.6182341 -0.22674866 44.57753265 -0.22659302 43.5052948 C-0.21110916 41.83784966 -0.21110916 41.83784966 -0.1953125 40.13671875 C-0.1924826 38.98959915 -0.18965271 37.84247955 -0.18673706 36.66059875 C-0.17555697 33.00279232 -0.15045595 29.34523222 -0.125 25.6875 C-0.11496741 23.20508167 -0.10584205 20.72265949 -0.09765625 18.24023438 C-0.07562471 12.16007244 -0.04216848 6.08005382 0 0 Z " fill="#203156" transform="translate(8,429)"/>
<path d="M0 0 C0.99 1.485 0.99 1.485 2 3 C10.38389695 15.09860822 25.19363103 18.8914402 39.04296875 21.59375 C63.00932282 24.05426414 92.83947559 24.24135645 113 9 C115.43177033 6.52656069 115.43177033 6.52656069 117 4 C117.99454476 2.66259262 118.99373243 1.32860955 120 0 C120.07616325 7.29566754 120.1286476 14.59123224 120.16479492 21.88720703 C120.17986662 24.3683658 120.20032746 26.84949799 120.22631836 29.33056641 C120.26277167 32.90013189 120.27974292 36.46934461 120.29296875 40.0390625 C120.30845261 41.14553131 120.32393646 42.25200012 120.33988953 43.39199829 C120.34130669 49.9003136 119.91903997 54.58542008 115.52734375 59.72265625 C97.00259932 75.33441875 69.44418653 76.5723438 46.31445312 74.79345703 C30.93943255 73.27262945 12.67596364 69.68437195 1.91210938 57.66943359 C-1.23397617 52.82917636 -0.49041735 47.16135937 -0.390625 41.6015625 C-0.38496521 40.41146576 -0.37930542 39.22136902 -0.37347412 37.99520874 C-0.35113451 34.20472514 -0.30093963 30.41519655 -0.25 26.625 C-0.22993201 24.05079493 -0.21168177 21.476575 -0.1953125 18.90234375 C-0.15127745 12.60123822 -0.08438805 6.30068735 0 0 Z " fill="#203156" transform="translate(384,429)"/>
<path d="M0 0 C0.62003906 0.79148438 1.24007812 1.58296875 1.87890625 2.3984375 C11.42647576 14.10871612 29.37144625 18.12377158 43.66113281 19.80371094 C58.48907993 21.04814408 73.57556952 20.78478863 88 17 C89.71703125 16.56494141 89.71703125 16.56494141 91.46875 16.12109375 C100.53248054 13.59044936 110.70580944 10.28655914 116 2 C116.66 1.34 117.32 0.68 118 0 C118.15247046 7.27715121 118.25735018 14.5538887 118.32958984 21.83227539 C118.35971262 24.30671583 118.40061976 26.78104993 118.45263672 29.25512695 C118.52564471 32.81748726 118.55950318 36.37843281 118.5859375 39.94140625 C118.61690521 41.04271378 118.64787292 42.1440213 118.67977905 43.27870178 C118.68205093 48.49509767 118.56080857 52.03374254 115.13500977 56.13549805 C112.54737342 58.71922342 109.83727803 60.59597568 106.5625 62.25 C105.67691406 62.70890625 104.79132813 63.1678125 103.87890625 63.640625 C98.1031084 66.3678674 92.80020727 68.4404569 86.5 69.625 C85.2521875 69.86476563 84.004375 70.10453125 82.71875 70.3515625 C81.4915625 70.56554687 80.264375 70.77953125 79 71 C77.95070313 71.18691406 76.90140625 71.37382812 75.8203125 71.56640625 C53.41593325 74.10923457 25.73042002 73.46475131 6.9375 59.4375 C0.30731043 54.09136949 0.30731043 54.09136949 -0.36076355 49.54486084 C-0.35410172 48.62996887 -0.34743988 47.7150769 -0.34057617 46.77246094 C-0.34034958 45.73168396 -0.34012299 44.69090698 -0.33988953 43.61859131 C-0.32440567 42.50179993 -0.30892181 41.38500854 -0.29296875 40.234375 C-0.28872391 39.08584045 -0.28447906 37.93730591 -0.28010559 36.75396729 C-0.26331333 33.0857397 -0.22565898 29.41806153 -0.1875 25.75 C-0.17245392 23.26302877 -0.15876539 20.77604892 -0.14648438 18.2890625 C-0.11340796 12.19252088 -0.06320256 6.09629969 0 0 Z " fill="#203256" transform="translate(197,201)"/>
<path d="M0 0 C12.9226727 -0.33305857 25.29966911 1.71872295 37.6484375 5.37890625 C39.07482544 5.79184937 39.07482544 5.79184937 40.5300293 6.21313477 C48.88595635 8.82615158 56.60641952 12.65962928 61.5859375 20.12890625 C63.12191204 23.20085533 62.8124413 25.73134918 62.5859375 29.12890625 C60.324407 35.91349774 55.09759957 40.26494486 48.921875 43.54296875 C21.98166266 55.37923455 -10.79272114 56.02684707 -38.21875 45.5 C-45.9003293 42.20387 -52.1074264 38.86901093 -56.4765625 31.49609375 C-58.07892665 27.45012428 -57.84651997 24.19523713 -56.4140625 20.12890625 C-50.12944461 9.78969617 -37.45236553 6.23232691 -26.4140625 3.12890625 C-17.72328888 1.0108899 -8.90679619 0.47560562 0 0 Z " fill="#203256" transform="translate(65.4140625,348.87109375)"/>
<path d="M0 0 C3.50634631 3.05620726 6.03457477 6.24727176 6.51171875 11 C6.1500827 16.33154867 4.10790536 20.29910797 0.3125 24.015625 C-20.37875913 39.7363582 -48.57631274 39.85377803 -73.25 37.328125 C-86.7688006 35.29182031 -101.54883336 31.4626245 -110.8125 20.703125 C-113.56050468 16.7643183 -114.22501392 14.22399059 -114.1484375 9.4609375 C-113.26243831 4.76063669 -110.28822654 1.96873885 -106.6875 -0.984375 C-99.69645183 -5.57988918 -91.66835264 -7.73638576 -83.6875 -9.984375 C-82.5840625 -10.32855469 -81.480625 -10.67273438 -80.34375 -11.02734375 C-76.18669902 -12.11546073 -72.14124379 -12.67051491 -67.875 -13.109375 C-67.07312256 -13.1928418 -66.27124512 -13.27630859 -65.44506836 -13.36230469 C-43.67971319 -15.52669313 -18.08705352 -13.35497556 0 0 Z " fill="#203256" transform="translate(497.6875,362.984375)"/>
<path d="M0 0 C3.4260994 3.34660753 5.83695787 6.33697025 6.3125 11.1875 C5.87499644 16.52504345 4.12819007 19.95193003 0.33984375 23.59765625 C-18.79065324 38.95704911 -46.47973565 39.69824319 -69.75 37.5390625 C-85.94038912 35.68588385 -101.4761284 31.77126744 -112.5625 19.0625 C-114.389888 15.16936904 -114.81390889 12.22215237 -114 8 C-109.8915092 -0.55935584 -101.62045624 -4.58660454 -93.14453125 -7.90234375 C-66.12388579 -17.33439515 -23.75530527 -18.17120653 0 0 Z " fill="#203256" transform="translate(310,363)"/>
<path d="M0 0 C3.45147091 3.42099435 5.81968024 6.30601383 6.6875 11.1875 C5.80143448 16.83616771 3.31062657 20.56585694 -1.03125 24.265625 C-8.59374894 29.50470559 -16.92923481 32.24213434 -25.8125 34.375 C-26.58779053 34.56191406 -27.36308105 34.74882812 -28.16186523 34.94140625 C-36.68192437 36.74442302 -45.20897513 36.77069279 -53.875 36.75 C-55.03828323 36.75018127 -55.03828323 36.75018127 -56.22506714 36.75036621 C-67.85670593 36.7245238 -78.69365423 36.06854556 -89.8125 32.375 C-90.80378906 32.06304687 -91.79507813 31.75109375 -92.81640625 31.4296875 C-101.40313848 28.38402093 -109.64438366 22.71123269 -113.8125 14.375 C-114.23467825 10.65983138 -113.99148163 8.71864472 -112.25 5.375 C-102.88183986 -6.15504324 -88.8327657 -11.55076607 -74.28125 -13.21875 C-50.10544566 -15.34600167 -19.8400374 -16.55143375 0 0 Z " fill="#203256" transform="translate(309.8125,133.625)"/>
<path d="M0 0 C0.33 0 0.66 0 1 0 C1.02578125 0.6290625 1.0515625 1.258125 1.078125 1.90625 C1.49082769 8.13430878 2.7076574 12.69897184 6 18 C6.53625 18.886875 7.0725 19.77375 7.625 20.6875 C10.63727199 23.62050167 13.86502059 25.13467868 17.66015625 26.88671875 C20 28 20 28 23 30 C22.58862793 30.53665283 22.17725586 31.07330566 21.75341797 31.6262207 C14.25247785 41.4198657 6.78720963 51.23340477 -0.5 61.1875 C-5.18667829 67.58859205 -9.96287473 73.86904958 -15 80 C-15.54712646 79.82871582 -16.09425293 79.65743164 -16.65795898 79.48095703 C-28.75504754 75.73953735 -40.36265249 72.96063716 -53 72 C-48.78063546 65.47648527 -44.24808651 59.27149555 -39.5 53.125 C-34.26214091 46.30034934 -29.08030221 39.4427617 -24 32.5 C-18.12789419 24.47629592 -12.12428718 16.55858286 -6.06445312 8.67578125 C-5.41798828 7.83273437 -4.77152344 6.9896875 -4.10546875 6.12109375 C-3.52949951 5.3727124 -2.95353027 4.62433105 -2.36010742 3.85327148 C-0.95084483 2.04223687 -0.95084483 2.04223687 0 0 Z " fill="#AAB9D2" transform="translate(127,278)"/>
<path d="M0 0 C4.03698323 3.69403562 7.0595234 8.02544452 10.25 12.4375 C15.41873324 19.5226068 20.66620746 26.53834486 26 33.5 C31.26072234 40.37847417 36.47978756 47.2845995 41.625 54.25 C42.45837891 55.37438477 42.45837891 55.37438477 43.30859375 56.52148438 C47.03097835 61.57976126 50.55825993 66.7470616 54 72 C52.94683594 72.09796875 51.89367187 72.1959375 50.80859375 72.296875 C38.68528075 73.51896606 27.55779446 76.07140219 16 80 C8.51140648 71.18406319 1.70075262 61.91528279 -5.11669922 52.57861328 C-8.32007244 48.19255832 -11.53397125 43.81427946 -14.75 39.4375 C-15.64464966 38.21450195 -15.64464966 38.21450195 -16.55737305 36.96679688 C-17.11078369 36.21333984 -17.66419434 35.45988281 -18.234375 34.68359375 C-18.72131836 34.01900146 -19.20826172 33.35440918 -19.70996094 32.66967773 C-21.03955205 30.87563046 -21.03955205 30.87563046 -23 29 C-22.26394531 28.75765625 -21.52789062 28.5153125 -20.76953125 28.265625 C-12.48620202 25.42062421 -7.51199537 22.77930235 -3 15 C-0.93584557 10.1112132 -0.44234545 5.23830139 0 0 Z " fill="#AAB9D2" transform="translate(384,278)"/>
<path d="M0 0 C1.23687309 -0.02409439 1.23687309 -0.02409439 2.49873352 -0.04867554 C6.27160816 -0.09315418 10.04430726 -0.13419153 13.81738281 -0.15722656 C15.80675964 -0.17378441 17.79607702 -0.20107219 19.78515625 -0.23925781 C22.65420372 -0.29405154 25.52185704 -0.31590407 28.39135742 -0.33056641 C29.27797562 -0.35323578 30.16459381 -0.37590515 31.07807922 -0.39926147 C35.49803051 -0.38415783 37.40873251 -0.24880021 41.04248047 2.48022461 C43.80044825 6.30830456 43.94831534 8.9089694 43.99682617 13.50537109 C44.10124023 14.5872168 44.10124023 14.5872168 44.20776367 15.69091797 C44.25311197 18.21908545 43.99686608 19.86221731 42.99682617 22.19287109 C40.29743977 24.94710979 37.18371486 26.91831545 33.92730713 28.96322632 C31.74501862 30.35326317 29.60718862 31.7996518 27.46899414 33.2565918 C23.20026395 36.16396276 18.9117139 39.04007836 14.61425781 41.90478516 C11.90571775 43.71195901 9.20221172 45.52650555 6.4987793 47.34130859 C4.77837655 48.49019602 3.05768419 49.63864992 1.33666992 50.78662109 C0.5284227 51.33024292 -0.27982452 51.87386475 -1.11256409 52.43395996 C-1.85771774 52.92867798 -2.6028714 53.423396 -3.37060547 53.93310547 C-4.35342247 54.58974182 -4.35342247 54.58974182 -5.35609436 55.25964355 C-7.00317383 56.19287109 -7.00317383 56.19287109 -9.00317383 56.19287109 C-9.07927808 49.16372619 -9.13179656 42.13468768 -9.16796875 35.10522461 C-9.18304926 32.7142337 -9.2035166 30.32327042 -9.22949219 27.93237305 C-9.26590689 24.49439674 -9.28290781 21.05678641 -9.29614258 17.61865234 C-9.31162643 16.55076981 -9.32711029 15.48288727 -9.34306335 14.38264465 C-9.34517947 5.03762489 -9.34517947 5.03762489 -6.00317383 1.19287109 C-3.7584282 0.07049828 -2.49126984 0.04409388 0 0 Z " fill="#198DCE" transform="translate(162.003173828125,16.80712890625)"/>
<path d="M0 0 C0.73541016 0.00202423 1.47082031 0.00404846 2.22851562 0.00613403 C2.97939453 0.00517731 3.73027344 0.00422058 4.50390625 0.00323486 C6.09440189 0.00255315 7.6849003 0.00440682 9.27539062 0.00857544 C11.71816217 0.01392386 14.16074984 0.00863019 16.60351562 0.00222778 C18.1451827 0.00288857 19.68684966 0.00416973 21.22851562 0.00613403 C21.96392578 0.0041098 22.69933594 0.00208557 23.45703125 0 C28.61356402 0.02399493 28.61356402 0.02399493 29.72851562 1.13894653 C29.82120561 2.48989635 29.84598889 3.84561744 29.84204102 5.19973755 C29.84196548 6.06055435 29.84188995 6.92137115 29.84181213 7.80827332 C29.83665085 8.74368454 29.83148956 9.67909576 29.82617188 10.64285278 C29.82475693 11.59586777 29.82334198 12.54888275 29.82188416 13.53077698 C29.81626714 16.58769819 29.80371178 19.6445473 29.79101562 22.70144653 C29.78600282 24.76850277 29.78143953 26.83556015 29.77734375 28.90261841 C29.76714121 33.98144486 29.74756918 39.06011459 29.72851562 44.13894653 C17.84851563 44.13894653 5.96851563 44.13894653 -6.27148438 44.13894653 C-6.29438991 38.03334998 -6.31431804 31.92790137 -6.32641602 25.82229614 C-6.33145726 23.74351497 -6.33829012 21.66473737 -6.34692383 19.58596802 C-6.3589986 16.60492068 -6.36471462 13.62392004 -6.36914062 10.64285278 C-6.37688255 9.23973595 -6.37688255 9.23973595 -6.38478088 7.80827332 C-6.38485641 6.94745651 -6.38493195 6.08663971 -6.38500977 5.19973755 C-6.38723038 4.43806778 -6.38945099 3.67639801 -6.39173889 2.89164734 C-6.12572523 -0.98548234 -3.2095524 0.01493503 0 0 Z " fill="#AAB9D2" transform="translate(244.271484375,306.8610534667969)"/>
</svg>
